<?xml version="1.0" encoding="UTF-8"?>
<svg xmlns="http://www.w3.org/2000/svg" xmlns:xlink="http://www.w3.org/1999/xlink" width="375pt" height="374.999991pt" viewBox="0 0 375 374.999991" version="1.2">
<defs>
<clipPath id="clip1">
  <path d="M 183 73.789062 L 192 73.789062 L 192 83 L 183 83 Z M 183 73.789062 "/>
</clipPath>
<clipPath id="clip2">
  <path d="M 128.511719 115 L 246 115 L 246 300.875 L 128.511719 300.875 Z M 128.511719 115 "/>
</clipPath>
</defs>
<g id="surface1">
<path style=" stroke:none;fill-rule:nonzero;fill:rgb(13.729858%,12.159729%,12.548828%);fill-opacity:1;" d="M 185.554688 99.164062 C 184.207031 100.179688 182.644531 100.210938 181.582031 98.785156 C 179.632812 96.167969 181.6875 91.71875 184.96875 91.660156 C 185.035156 91.816406 185.171875 91.933594 185.40625 91.96875 C 189.707031 92.597656 188.066406 97.273438 185.554688 99.164062 Z M 185.816406 90.652344 C 185.710938 90.453125 185.53125 90.289062 185.246094 90.273438 C 181.1875 90.035156 178.535156 94.800781 179.78125 98.367188 C 180.632812 100.808594 183.101562 101.878906 185.402344 100.859375 C 189.550781 99.011719 191.65625 91.542969 185.816406 90.652344 "/>
<g clip-path="url(#clip1)" clip-rule="nonzero">
<path style=" stroke:none;fill-rule:nonzero;fill:rgb(13.729858%,12.159729%,12.548828%);fill-opacity:1;" d="M 187.820312 80.300781 C 187.019531 80.984375 185.898438 81.410156 185.222656 80.453125 C 184.640625 79.628906 184.476562 78.457031 184.5 77.46875 C 184.535156 75.992188 185.542969 75.171875 186.964844 75.136719 C 187.027344 75.136719 187.078125 75.117188 187.128906 75.101562 C 187.1875 75.117188 187.238281 75.136719 187.304688 75.136719 C 188.605469 75.152344 189.855469 75.535156 189.773438 76.976562 C 189.699219 78.257812 188.753906 79.503906 187.820312 80.300781 Z M 188.378906 73.847656 C 188.023438 73.789062 187.664062 73.765625 187.304688 73.765625 C 187.246094 73.765625 187.191406 73.78125 187.140625 73.796875 C 187.082031 73.78125 187.03125 73.761719 186.964844 73.765625 C 185.300781 73.804688 183.976562 74.554688 183.367188 76.136719 C 182.847656 77.488281 183.140625 79.242188 183.707031 80.535156 C 184.5 82.324219 186.242188 82.816406 187.914062 81.898438 C 189.449219 81.054688 190.6875 79.328125 191.054688 77.628906 C 191.484375 75.667969 190.320312 74.148438 188.378906 73.847656 "/>
</g>
<path style=" stroke:none;fill-rule:nonzero;fill:rgb(13.729858%,12.159729%,12.548828%);fill-opacity:1;" d="M 193.929688 86.625 L 193.886719 86.714844 L 193.800781 86.859375 L 193.753906 86.925781 C 193.683594 87.019531 193.601562 87.105469 193.519531 87.183594 L 193.382812 87.308594 L 193.316406 87.363281 C 193.089844 87.53125 192.847656 87.671875 192.59375 87.789062 L 192.480469 87.839844 L 192.34375 87.894531 C 192.203125 87.945312 192.0625 87.988281 191.917969 88.03125 C 191.800781 88.0625 191.675781 88.089844 191.550781 88.113281 L 191.441406 88.128906 L 191.308594 88.144531 C 191.183594 88.152344 191.054688 88.152344 190.921875 88.152344 C 190.863281 88.152344 190.804688 88.144531 190.738281 88.140625 L 190.707031 88.140625 C 190.605469 88.121094 190.496094 88.09375 190.398438 88.0625 L 190.3125 88.03125 L 190.230469 87.992188 L 190.085938 87.90625 L 190.082031 87.90625 L 189.96875 87.789062 L 189.957031 87.78125 L 189.886719 87.664062 L 189.863281 87.621094 C 189.828125 87.527344 189.808594 87.429688 189.789062 87.332031 L 189.777344 87.230469 C 189.773438 87.15625 189.773438 87.085938 189.777344 87.007812 L 189.792969 86.851562 L 189.824219 86.660156 C 189.992188 85.8125 190.328125 85.167969 190.78125 84.429688 L 191.769531 84.429688 L 191.902344 84.398438 C 192.308594 84.585938 192.707031 84.792969 193.074219 85.046875 L 193.25 85.171875 L 193.417969 85.316406 C 193.535156 85.421875 193.640625 85.535156 193.742188 85.65625 L 193.816406 85.757812 C 193.851562 85.816406 193.882812 85.875 193.914062 85.933594 L 193.925781 85.957031 L 193.929688 85.96875 C 193.953125 86.035156 193.972656 86.101562 193.988281 86.167969 L 193.988281 86.1875 L 193.996094 86.347656 L 193.992188 86.390625 L 193.957031 86.542969 Z M 194.542969 84.488281 C 193.96875 83.894531 193.207031 83.476562 192.457031 83.144531 C 192.28125 83.066406 192.09375 83.046875 191.925781 83.082031 C 191.871094 83.070312 191.828125 83.050781 191.769531 83.050781 L 190.636719 83.050781 C 190.371094 83.050781 190.113281 83.050781 189.910156 83.25 C 189.765625 83.398438 189.660156 83.617188 189.558594 83.789062 C 189.257812 84.300781 189 84.824219 188.78125 85.371094 C 188.480469 86.125 188.3125 86.949219 188.46875 87.746094 C 188.726562 89.058594 190.070312 89.597656 191.273438 89.519531 C 192.5 89.441406 193.804688 88.917969 194.640625 88 C 195.066406 87.535156 195.351562 86.960938 195.367188 86.324219 C 195.386719 85.621094 195.015625 84.976562 194.542969 84.488281 "/>
<g clip-path="url(#clip2)" clip-rule="nonzero">
<path style=" stroke:none;fill-rule:nonzero;fill:rgb(13.729858%,12.159729%,12.548828%);fill-opacity:1;" d="M 243.28125 286.683594 C 241.183594 293.941406 231.359375 296.425781 227.402344 296.777344 C 223.4375 297.128906 201.324219 298.890625 195.617188 299.144531 C 187.113281 299.53125 164.320312 298.816406 159.734375 298.269531 C 155.15625 297.714844 143.75 296.582031 137.316406 293.433594 C 130.105469 289.898438 129.339844 283.125 131.71875 276.238281 C 134.195312 269.0625 138.199219 262.273438 141.421875 255.421875 C 144.953125 247.910156 148.308594 240.320312 151.433594 232.632812 C 157.890625 216.710938 163.039062 200.167969 165.859375 183.195312 C 168.570312 166.871094 167.332031 150.320312 167.613281 133.847656 C 167.933594 133.996094 168.238281 134.121094 168.507812 134.226562 C 174.5 136.621094 180.945312 137.367188 187.34375 137.660156 C 193.816406 137.960938 201.269531 138.042969 207.703125 136.246094 C 207.84375 138.160156 207.4375 140.488281 207.4375 142.238281 C 207.4375 145.820312 207.597656 149.402344 207.660156 152.988281 C 207.800781 160.773438 208.3125 168.539062 208.097656 176.324219 C 207.660156 192.417969 213.828125 207.148438 220.023438 221.59375 C 226.21875 236.039062 231.933594 250.613281 238.824219 264.761719 C 242.082031 271.453125 245.457031 279.148438 243.28125 286.683594 Z M 165.558594 130.113281 C 165.597656 127.554688 165.984375 122.363281 166.027344 122.035156 C 169.933594 123.511719 179.960938 124.519531 189.753906 125.230469 C 196.265625 125.699219 207.296875 124.671875 210.445312 122.515625 C 210.953125 124.632812 210.953125 130.683594 210.871094 132.269531 C 210.785156 133.875 209.867188 134.214844 208.578125 134.429688 C 203.347656 135.722656 193.527344 136.5 187.34375 136.289062 C 182.125 136.109375 175.996094 135.140625 170.972656 133.714844 C 168.847656 133.113281 165.519531 132.632812 165.558594 130.113281 Z M 186.363281 117.191406 C 194.578125 117.316406 202.351562 118.210938 209.226562 121.746094 C 203.0625 124.636719 196.015625 124.453125 189.414062 123.9375 C 182.34375 123.390625 172.417969 122.480469 166.929688 120.886719 C 172.078125 117.546875 180.464844 117.097656 186.363281 117.191406 Z M 244.746094 276.460938 C 243.335938 269.632812 239.582031 263.410156 236.679688 257.160156 C 232.632812 248.457031 228.851562 239.632812 225.222656 230.753906 C 221.917969 222.667969 218.363281 214.671875 215.160156 206.542969 C 211.679688 197.714844 210.109375 188.296875 209.492188 178.84375 C 209.222656 174.722656 209.640625 170.5625 209.433594 166.425781 C 209.234375 162.328125 209.054688 158.238281 209.042969 154.136719 C 209.023438 150.171875 208.8125 146.207031 208.8125 142.238281 C 208.8125 140.328125 209.226562 137.882812 209.035156 135.839844 C 209.265625 135.765625 210.753906 135.492188 210.984375 135.421875 C 212.789062 134.878906 211.714844 122.132812 211.683594 121.996094 C 211.527344 121.371094 210.855469 121.175781 210.328125 120.953125 C 202.457031 117.546875 196.382812 116.109375 187.347656 115.984375 C 180.40625 115.890625 170.25 116.117188 164.859375 121.089844 C 164.613281 121.316406 164.375 129.566406 164.453125 131.160156 C 164.527344 132.757812 165.429688 132.617188 166.25 133.132812 C 165.882812 151.519531 167.09375 169.691406 163.640625 187.878906 C 160.105469 206.46875 153.65625 224.394531 146.136719 241.703125 C 142.527344 250.027344 138.625 258.21875 134.65625 266.378906 C 132.078125 271.683594 129.058594 277.199219 128.921875 283.234375 C 128.613281 297.347656 148.804688 298.015625 158.476562 299.300781 C 167.6875 300.519531 180.328125 300.847656 195.617188 300.519531 C 201.328125 300.398438 221.328125 298.984375 226.828125 298.496094 C 232.300781 298.015625 237.011719 296.898438 240.933594 293.152344 C 245.480469 288.808594 245.9375 282.261719 244.746094 276.460938 "/>
</g>
<path style=" stroke:none;fill-rule:nonzero;fill:rgb(13.729858%,12.159729%,12.548828%);fill-opacity:1;" d="M 240.964844 284.3125 C 239.566406 291.40625 231.347656 293.167969 225.304688 293.851562 C 218.824219 294.589844 212.238281 294.640625 205.734375 295.21875 C 194.972656 296.171875 184.132812 296.203125 173.347656 295.628906 C 163.140625 295.085938 152.289062 294.589844 142.445312 291.589844 C 133.296875 288.804688 132.964844 281.128906 135.257812 273.859375 C 136.214844 270.828125 146.496094 250.3125 150.871094 240.535156 C 151.449219 239.246094 152.988281 236.632812 153.582031 235.355469 C 155.929688 235.992188 164.742188 240.074219 186.640625 240.128906 C 199.535156 240.15625 214.230469 235.496094 219.746094 233.417969 C 222.542969 236.601562 239.148438 273.238281 239.816406 275.460938 C 240.773438 278.648438 241.636719 280.890625 240.964844 284.3125 Z M 161.03125 232.902344 C 163.640625 232.121094 166.328125 231.601562 168.988281 231.050781 C 175.058594 229.796875 181.238281 229.453125 187.417969 229.292969 C 193.46875 229.136719 199.40625 229.28125 205.410156 230.175781 C 209.527344 230.785156 214.105469 231.078125 218.070312 232.578125 C 208.109375 236.203125 197.195312 238.519531 186.640625 238.753906 C 181.238281 238.867188 175.59375 238.304688 170.210938 237.859375 C 167.070312 237.601562 157.613281 235.429688 156.039062 234.769531 C 157.71875 234.203125 159.3125 233.410156 161.03125 232.902344 Z M 242.359375 278.316406 C 241.996094 276.105469 224.667969 237.121094 220.953125 232.722656 C 220.773438 232.269531 220.339844 232.136719 219.949219 231.878906 L 219.894531 231.871094 C 215.832031 230.011719 211.457031 229.546875 206.9375 229.039062 C 200.835938 228.355469 194.789062 227.777344 188.671875 227.886719 C 182.75 227.996094 176.851562 228.332031 171 229.273438 C 167.910156 229.769531 164.828125 230.492188 161.796875 231.265625 C 159.03125 231.96875 152.945312 233.453125 152.507812 234.398438 C 148.292969 243.527344 135.347656 268.832031 133.914062 272.839844 C 132.585938 276.539062 131.960938 280.398438 132.832031 284.21875 C 134.597656 291.945312 143.785156 293.59375 150.257812 294.59375 C 160.507812 296.171875 170.695312 297.039062 181.066406 297.3125 C 191.4375 297.589844 201.671875 296.863281 211.988281 295.984375 C 217.734375 295.496094 223.492188 295.6875 229.191406 294.671875 C 234.195312 293.785156 239.273438 291.640625 241.574219 286.816406 C 242.816406 284.203125 242.824219 281.109375 242.359375 278.316406 "/>
<path style=" stroke:none;fill-rule:nonzero;fill:rgb(13.729858%,12.159729%,12.548828%);fill-opacity:1;" d="M 181.804688 277.425781 C 174.894531 278.507812 167.878906 278.191406 161.054688 279.882812 C 154.664062 281.464844 148.570312 284.203125 142.6875 287.125 C 141.898438 287.519531 142.59375 288.707031 143.382812 288.3125 C 149.566406 285.242188 155.898438 282.578125 162.613281 280.914062 C 168.988281 279.332031 175.699219 279.765625 182.167969 278.75 C 183.039062 278.613281 182.667969 277.285156 181.804688 277.425781 "/>
<path style=" stroke:none;fill-rule:nonzero;fill:rgb(13.729858%,12.159729%,12.548828%);fill-opacity:1;" d="M 210.179688 278.921875 C 208.945312 280.808594 206.007812 280.210938 204.945312 278.554688 C 203.949219 276.996094 204.378906 274.707031 206.410156 273.644531 C 209.394531 272.546875 211.667969 276.644531 210.179688 278.921875 Z M 204.667969 272.957031 C 203.722656 273.730469 203.03125 275.382812 203.058594 276.660156 C 197.457031 275.929688 191.898438 276.953125 186.277344 276.882812 C 185.390625 276.871094 185.390625 278.25 186.277344 278.257812 C 191.953125 278.328125 197.597656 277.199219 203.253906 278.0625 L 203.269531 278.0625 C 203.339844 278.316406 203.421875 278.566406 203.53125 278.8125 C 204.703125 281.546875 208.378906 282.269531 210.628906 280.402344 C 214.773438 276.96875 209.308594 269.160156 204.667969 272.957031 "/>
<path style=" stroke:none;fill-rule:nonzero;fill:rgb(13.729858%,12.159729%,12.548828%);fill-opacity:1;" d="M 236.558594 282.480469 C 231.023438 279.59375 225.023438 278.472656 218.878906 277.742188 C 218.003906 277.640625 218.011719 279.015625 218.878906 279.117188 C 224.785156 279.820312 230.539062 280.890625 235.863281 283.667969 C 236.644531 284.078125 237.339844 282.890625 236.558594 282.480469 "/>
<path style=" stroke:none;fill-rule:nonzero;fill:rgb(13.729858%,12.159729%,12.548828%);fill-opacity:1;" d="M 202.53125 256.339844 C 201.921875 256.792969 200.941406 256.71875 200.84375 255.773438 C 200.789062 255.21875 201.265625 253.546875 202.148438 252.917969 C 202.632812 252.578125 203.832031 253.035156 203.832031 254.070312 C 203.835938 254.910156 203.199219 255.851562 202.53125 256.339844 Z M 202.234375 251.429688 C 200.71875 251.601562 199.761719 253.957031 199.539062 254.976562 C 199.175781 256.6875 200.601562 258.421875 202.390625 257.941406 C 203.84375 257.550781 204.914062 255.890625 205.15625 254.476562 C 205.496094 252.53125 204.066406 251.21875 202.234375 251.429688 "/>
<path style=" stroke:none;fill-rule:nonzero;fill:rgb(13.729858%,12.159729%,12.548828%);fill-opacity:1;" d="M 189.933594 268.195312 C 189.171875 269.273438 187.957031 269.21875 186.945312 268.5625 C 184.648438 267.074219 185.199219 263.589844 188.164062 263.640625 C 188.425781 263.644531 190.136719 263.8125 190.5625 264.882812 C 191 265.976562 190.597656 267.265625 189.933594 268.195312 Z M 191.960938 264.800781 C 191.222656 262.464844 188.394531 261.832031 186.492188 262.59375 C 184.3125 263.535156 183.1875 266.308594 184.871094 268.464844 C 186.171875 270.132812 188.46875 271.183594 190.320312 269.738281 C 191.769531 268.605469 192.503906 266.511719 191.960938 264.800781 "/>
<path style=" stroke:none;fill-rule:nonzero;fill:rgb(13.729858%,12.159729%,12.548828%);fill-opacity:1;" d="M 172.632812 259.15625 C 172.117188 259.507812 171.425781 259.640625 170.921875 259.191406 C 170.011719 258.375 170.378906 256.226562 171.851562 256.738281 C 172.035156 256.796875 172.1875 256.773438 172.320312 256.710938 C 172.847656 256.902344 173.308594 257.203125 173.449219 257.710938 C 173.585938 258.234375 173.089844 258.851562 172.632812 259.15625 Z M 171.1875 255.0625 C 170.792969 255.011719 170.511719 255.257812 170.394531 255.550781 C 169.289062 256.179688 168.710938 257.753906 169.207031 259.054688 C 169.75 260.46875 171.230469 261.195312 172.65625 260.675781 C 173.824219 260.246094 174.804688 259.15625 174.835938 257.867188 C 174.878906 255.992188 172.671875 255.273438 171.1875 255.0625 "/>
</g>
</svg>
